<svg xmlns="http://www.w3.org/2000/svg" width="1000" height="1000" viewBox="0 0 1000 1000" role="img" aria-label="GitHub avatar source">
  <defs>
    <radialGradient id="core" cx="50%" cy="50%" r="50%">
      <stop offset="0%" stop-color="#f2dda7"/>
      <stop offset="55%" stop-color="#d9b56d"/>
      <stop offset="100%" stop-color="#9b6d2d"/>
    </radialGradient>
  </defs>

  <rect width="1000" height="1000" fill="#10161f"/>
  <g opacity="0.65" stroke="#233142" stroke-width="2">
    <line x1="-80" y1="0" x2="270" y2="1000"/>
    <line x1="40" y1="0" x2="390" y2="1000"/>
    <line x1="160" y1="0" x2="510" y2="1000"/>
    <line x1="280" y1="0" x2="630" y2="1000"/>
    <line x1="400" y1="0" x2="750" y2="1000"/>
    <line x1="520" y1="0" x2="870" y2="1000"/>
  </g>

  <circle cx="500" cy="500" r="360" fill="none" stroke="url(#core)" stroke-width="10"/>
  <circle cx="500" cy="500" r="282" fill="none" stroke="url(#core)" stroke-width="8"/>
  <circle cx="500" cy="500" r="186" fill="none" stroke="url(#core)" stroke-width="7"/>
  <circle cx="500" cy="500" r="98" fill="none" stroke="url(#core)" stroke-width="6"/>
  <circle cx="500" cy="500" r="26" fill="#f2dda7"/>

  <g stroke="#d9b56d" stroke-width="6" stroke-linecap="round" opacity="0.92">
    <line x1="500" y1="140" x2="500" y2="314"/>
    <line x1="860" y1="500" x2="686" y2="500"/>
    <line x1="500" y1="860" x2="500" y2="686"/>
    <line x1="140" y1="500" x2="314" y2="500"/>
    <line x1="754.6" y1="245.4" x2="631.5" y2="368.5"/>
    <line x1="754.6" y1="754.6" x2="631.5" y2="631.5"/>
    <line x1="245.4" y1="754.6" x2="368.5" y2="631.5"/>
    <line x1="245.4" y1="245.4" x2="368.5" y2="368.5"/>
  </g>

  <g fill="#f0d99a">
    <circle cx="500" cy="140" r="12"/>
    <circle cx="860" cy="500" r="12"/>
    <circle cx="500" cy="860" r="12"/>
    <circle cx="140" cy="500" r="12"/>
    <circle cx="754.6" cy="245.4" r="10"/>
    <circle cx="754.6" cy="754.6" r="10"/>
    <circle cx="245.4" cy="754.6" r="10"/>
    <circle cx="245.4" cy="245.4" r="10"/>
  </g>
</svg>
